<?xml version="1.0" encoding="UTF-8" standalone="no"?><!DOCTYPE svg PUBLIC "-//W3C//DTD SVG 1.1//EN" "http://www.w3.org/Graphics/SVG/1.1/DTD/svg11.dtd"><svg width="100%" height="100%" viewBox="0 0 1233 198" version="1.1" xmlns="http://www.w3.org/2000/svg" xmlns:xlink="http://www.w3.org/1999/xlink" xml:space="preserve" xmlns:serif="http://www.serif.com/" style="fill-rule:evenodd;clip-rule:evenodd;stroke-linejoin:round;stroke-miterlimit:1.41421;"><rect id="Prancheta1" x="0" y="0" width="1232.78" height="197.081" style="fill:none;"/><path d="M69.599,62.976c6.783,0 12.988,1.053 18.618,3.16c5.63,2.107 10.47,5.169 14.519,9.186c4.05,4.016 7.21,8.938 9.482,14.765c2.271,5.828 3.407,12.429 3.407,19.803c0,2.305 -0.099,4.182 -0.296,5.63c-0.198,1.449 -0.56,2.601 -1.087,3.457c-0.526,0.856 -1.234,1.449 -2.123,1.778c-0.889,0.329 -2.025,0.494 -3.408,0.494l-59.063,0c0.988,8.56 3.589,14.765 7.803,18.617c4.214,3.852 9.646,5.778 16.297,5.778c3.555,0 6.617,-0.428 9.185,-1.284c2.568,-0.856 4.856,-1.81 6.864,-2.864c2.009,-1.054 3.852,-2.008 5.531,-2.864c1.68,-0.856 3.441,-1.284 5.285,-1.284c2.436,0 4.279,0.889 5.531,2.667l8.889,10.963c-3.161,3.621 -6.568,6.568 -10.223,8.839c-3.654,2.272 -7.407,4.05 -11.259,5.334c-3.852,1.284 -7.704,2.173 -11.556,2.667c-3.852,0.493 -7.523,0.74 -11.013,0.74c-7.177,0 -13.91,-1.168 -20.198,-3.506c-6.288,-2.337 -11.786,-5.811 -16.494,-10.42c-4.708,-4.609 -8.428,-10.338 -11.161,-17.185c-2.732,-6.848 -4.099,-14.816 -4.099,-23.902c0,-6.848 1.169,-13.334 3.507,-19.457c2.337,-6.124 5.695,-11.49 10.074,-16.1c4.379,-4.609 9.679,-8.263 15.902,-10.963c6.222,-2.699 13.251,-4.049 21.086,-4.049Zm0.593,21.136c-5.86,0 -10.436,1.663 -13.729,4.988c-3.292,3.325 -5.465,8.115 -6.518,14.37l38.223,0c0,-2.436 -0.313,-4.806 -0.938,-7.111c-0.626,-2.304 -1.647,-4.362 -3.062,-6.173c-1.416,-1.811 -3.276,-3.276 -5.581,-4.395c-2.304,-1.119 -5.103,-1.679 -8.395,-1.679Z" style="fill-rule:nonzero;"/><rect x="131.23" y="94.581" width="53.335" height="24.692" style="fill-rule:nonzero;"/><path d="M298.938,23.074l0,25.679l-59.063,0l0,36.445l49.186,0l0,25.779l-49.186,0l0,56.001l-33.581,0l0,-143.904l92.644,0Z" style="fill-rule:nonzero;"/><path d="M387.039,166.978c-2.898,0 -5.087,-0.395 -6.568,-1.185c-1.482,-0.79 -2.716,-2.436 -3.704,-4.939l-2.173,-5.629c-2.568,2.173 -5.037,4.082 -7.408,5.728c-2.37,1.646 -4.823,3.046 -7.358,4.198c-2.535,1.152 -5.234,2.008 -8.099,2.568c-2.864,0.56 -6.041,0.839 -9.531,0.839c-4.675,0 -8.922,-0.611 -12.741,-1.833c-3.819,-1.222 -7.062,-3.022 -9.728,-5.401c-2.667,-2.378 -4.725,-5.334 -6.173,-8.868c-1.449,-3.534 -2.173,-7.613 -2.173,-12.236c0,-3.634 0.922,-7.367 2.765,-11.198c1.844,-3.831 5.037,-7.316 9.581,-10.454c4.543,-3.138 10.667,-5.764 18.37,-7.877c7.704,-2.114 17.416,-3.171 29.137,-3.171l0,-4.386c0,-6.047 -1.235,-10.417 -3.704,-13.108c-2.469,-2.692 -5.975,-4.037 -10.519,-4.037c-3.621,0 -6.584,0.395 -8.889,1.185c-2.304,0.79 -4.362,1.679 -6.173,2.667c-1.81,0.987 -3.572,1.876 -5.284,2.666c-1.712,0.79 -3.753,1.185 -6.123,1.185c-2.107,0 -3.902,-0.51 -5.383,-1.53c-1.482,-1.021 -2.651,-2.289 -3.506,-3.803l-5.531,-9.58c6.189,-5.466 13.053,-9.532 20.593,-12.198c7.539,-2.667 15.621,-4 24.247,-4c6.189,0 11.77,1.004 16.741,3.012c4.971,2.008 9.186,4.807 12.642,8.395c3.457,3.589 6.108,7.852 7.951,12.791c1.844,4.938 2.766,10.337 2.766,16.198l0,64.001l-14.025,0Zm-35.162,-18.667c3.951,0 7.408,-0.691 10.371,-2.074c2.963,-1.383 5.959,-3.622 8.988,-6.716l0,-14.025c-6.124,0 -11.161,0.398 -15.112,1.195c-3.95,0.797 -7.078,1.793 -9.383,2.989c-2.304,1.196 -3.901,2.558 -4.79,4.085c-0.889,1.527 -1.333,3.188 -1.333,4.981c0,3.521 0.955,5.995 2.864,7.423c1.91,1.428 4.708,2.142 8.395,2.142Z" style="fill-rule:nonzero;"/><path d="M485.411,86.976c-0.79,1.251 -1.629,2.14 -2.518,2.667c-0.889,0.527 -2.025,0.79 -3.408,0.79c-1.448,0 -2.897,-0.313 -4.346,-0.938c-1.448,-0.626 -3.012,-1.301 -4.691,-2.025c-1.679,-0.724 -3.572,-1.399 -5.679,-2.025c-2.107,-0.625 -4.511,-0.938 -7.21,-0.938c-3.885,0 -6.865,0.741 -8.939,2.222c-2.074,1.482 -3.111,3.54 -3.111,6.173c0,1.91 0.675,3.49 2.025,4.741c1.35,1.251 3.144,2.354 5.383,3.309c2.238,0.955 4.773,1.86 7.605,2.716c2.831,0.856 5.728,1.811 8.691,2.864c2.963,1.054 5.861,2.288 8.692,3.704c2.831,1.416 5.366,3.161 7.605,5.235c2.239,2.074 4.033,4.592 5.383,7.555c1.35,2.963 2.025,6.519 2.025,10.667c0,5.07 -0.922,9.745 -2.766,14.025c-1.844,4.28 -4.593,7.968 -8.247,11.062c-3.654,3.095 -8.165,5.498 -13.531,7.21c-5.367,1.712 -11.54,2.568 -18.519,2.568c-3.49,0 -6.98,-0.329 -10.469,-0.987c-3.49,-0.659 -6.865,-1.548 -10.124,-2.667c-3.259,-1.119 -6.272,-2.453 -9.037,-4c-2.766,-1.548 -5.136,-3.21 -7.112,-4.988l7.112,-11.259c0.856,-1.317 1.876,-2.354 3.061,-3.112c1.186,-0.757 2.733,-1.135 4.642,-1.135c1.778,0 3.375,0.395 4.791,1.185c1.415,0.79 2.946,1.646 4.592,2.568c1.647,0.922 3.573,1.778 5.778,2.568c2.206,0.79 4.988,1.185 8.346,1.185c2.371,0 4.379,-0.247 6.025,-0.741c1.646,-0.494 2.963,-1.169 3.951,-2.025c0.987,-0.856 1.712,-1.81 2.173,-2.864c0.461,-1.053 0.691,-2.14 0.691,-3.259c0,-2.041 -0.691,-3.72 -2.074,-5.037c-1.383,-1.317 -3.194,-2.453 -5.432,-3.408c-2.239,-0.955 -4.791,-1.843 -7.655,-2.667c-2.864,-0.823 -5.778,-1.761 -8.741,-2.814c-2.963,-1.054 -5.876,-2.321 -8.741,-3.803c-2.864,-1.481 -5.415,-3.358 -7.654,-5.63c-2.239,-2.271 -4.05,-5.053 -5.432,-8.346c-1.383,-3.292 -2.075,-7.275 -2.075,-11.95c0,-4.346 0.84,-8.478 2.519,-12.396c1.679,-3.918 4.198,-7.358 7.556,-10.321c3.358,-2.963 7.572,-5.317 12.642,-7.062c5.07,-1.745 10.996,-2.617 17.778,-2.617c3.687,0 7.26,0.329 10.716,0.987c3.457,0.659 6.7,1.581 9.729,2.766c3.029,1.185 5.794,2.584 8.297,4.198c2.502,1.613 4.707,3.374 6.617,5.284l-6.914,10.765Z" style="fill-rule:nonzero;"/><path d="M509.708,166.978l0,-147.855l30.618,0l0,54.421c3.687,-3.161 7.687,-5.712 12,-7.655c4.313,-1.942 9.466,-2.913 15.457,-2.913c5.597,0 10.552,0.971 14.865,2.913c4.313,1.943 7.951,4.642 10.914,8.099c2.963,3.457 5.202,7.573 6.716,12.346c1.514,4.774 2.272,9.959 2.272,15.556l0,65.088l-30.618,0l0,-65.088c0,-5.004 -1.153,-8.905 -3.457,-11.704c-2.305,-2.798 -5.696,-4.197 -10.173,-4.197c-3.358,0 -6.519,0.724 -9.482,2.172c-2.963,1.449 -5.794,3.392 -8.494,5.828l0,72.989l-30.618,0Z" style="fill-rule:nonzero;"/><path d="M655.884,64.556l0,102.422l-30.618,0l0,-102.422l30.618,0Zm3.556,-28.05c0,2.436 -0.494,4.724 -1.482,6.864c-0.987,2.14 -2.337,4.017 -4.049,5.63c-1.712,1.613 -3.704,2.897 -5.976,3.852c-2.271,0.955 -4.691,1.432 -7.259,1.432c-2.502,0 -4.84,-0.477 -7.013,-1.432c-2.172,-0.955 -4.098,-2.239 -5.777,-3.852c-1.679,-1.613 -2.996,-3.49 -3.951,-5.63c-0.955,-2.14 -1.432,-4.428 -1.432,-6.864c0,-2.502 0.477,-4.84 1.432,-7.012c0.955,-2.173 2.272,-4.083 3.951,-5.729c1.679,-1.646 3.605,-2.93 5.777,-3.852c2.173,-0.922 4.511,-1.383 7.013,-1.383c2.568,0 4.988,0.461 7.259,1.383c2.272,0.922 4.264,2.206 5.976,3.852c1.712,1.646 3.062,3.556 4.049,5.729c0.988,2.172 1.482,4.51 1.482,7.012Z" style="fill-rule:nonzero;"/><path d="M726.207,62.976c7.769,0 14.848,1.218 21.235,3.654c6.387,2.436 11.868,5.926 16.445,10.47c4.576,4.543 8.131,10.057 10.667,16.543c2.535,6.486 3.802,13.778 3.802,21.877c0,8.165 -1.267,15.523 -3.802,22.075c-2.536,6.551 -6.091,12.115 -10.667,16.691c-4.577,4.577 -10.058,8.099 -16.445,10.569c-6.387,2.469 -13.466,3.703 -21.235,3.703c-7.836,0 -14.964,-1.234 -21.383,-3.703c-6.42,-2.47 -11.951,-5.992 -16.593,-10.569c-4.642,-4.576 -8.231,-10.14 -10.766,-16.691c-2.535,-6.552 -3.803,-13.91 -3.803,-22.075c0,-8.099 1.268,-15.391 3.803,-21.877c2.535,-6.486 6.124,-12 10.766,-16.543c4.642,-4.544 10.173,-8.034 16.593,-10.47c6.419,-2.436 13.547,-3.654 21.383,-3.654Zm0,82.866c7.045,0 12.23,-2.486 15.556,-7.457c3.325,-4.971 4.987,-12.527 4.987,-22.667c0,-10.14 -1.662,-17.68 -4.987,-22.618c-3.326,-4.939 -8.511,-7.408 -15.556,-7.408c-7.243,0 -12.544,2.469 -15.902,7.408c-3.358,4.938 -5.037,12.478 -5.037,22.618c0,10.14 1.679,17.696 5.037,22.667c3.358,4.971 8.659,7.457 15.902,7.457Z" style="fill-rule:nonzero;"/><path d="M795.147,166.978l0,-102.422l18.963,0c1.909,0 3.506,0.428 4.79,1.284c1.284,0.856 2.19,2.14 2.716,3.852l1.778,5.926c1.975,-1.844 4.017,-3.556 6.124,-5.136c2.107,-1.58 4.362,-2.914 6.765,-4c2.404,-1.086 5.005,-1.942 7.803,-2.568c2.798,-0.625 5.844,-0.938 9.136,-0.938c5.597,0 10.552,0.971 14.864,2.913c4.313,1.943 7.951,4.642 10.914,8.099c2.963,3.457 5.202,7.573 6.717,12.346c1.514,4.774 2.271,9.959 2.271,15.556l0,65.088l-30.618,0l0,-65.088c0,-5.004 -1.152,-8.905 -3.457,-11.704c-2.304,-2.798 -5.695,-4.197 -10.173,-4.197c-3.358,0 -6.518,0.724 -9.481,2.172c-2.963,1.449 -5.795,3.392 -8.494,5.828l0,72.989l-30.618,0Z" style="fill-rule:nonzero;"/><path d="M941.323,64.556l0,102.422l-30.618,0l0,-102.422l30.618,0Zm3.555,-28.05c0,2.436 -0.494,4.724 -1.481,6.864c-0.988,2.14 -2.338,4.017 -4.05,5.63c-1.712,1.613 -3.703,2.897 -5.975,3.852c-2.272,0.955 -4.692,1.432 -7.26,1.432c-2.502,0 -4.839,-0.477 -7.012,-1.432c-2.173,-0.955 -4.099,-2.239 -5.778,-3.852c-1.679,-1.613 -2.996,-3.49 -3.951,-5.63c-0.954,-2.14 -1.432,-4.428 -1.432,-6.864c0,-2.502 0.478,-4.84 1.432,-7.012c0.955,-2.173 2.272,-4.083 3.951,-5.729c1.679,-1.646 3.605,-2.93 5.778,-3.852c2.173,-0.922 4.51,-1.383 7.012,-1.383c2.568,0 4.988,0.461 7.26,1.383c2.272,0.922 4.263,2.206 5.975,3.852c1.712,1.646 3.062,3.556 4.05,5.729c0.987,2.172 1.481,4.51 1.481,7.012Z" style="fill-rule:nonzero;"/><path d="M1028.63,86.976c-0.79,1.251 -1.629,2.14 -2.518,2.667c-0.889,0.527 -2.025,0.79 -3.408,0.79c-1.448,0 -2.897,-0.313 -4.346,-0.938c-1.448,-0.626 -3.012,-1.301 -4.691,-2.025c-1.679,-0.724 -3.572,-1.399 -5.679,-2.025c-2.107,-0.625 -4.511,-0.938 -7.21,-0.938c-3.885,0 -6.865,0.741 -8.939,2.222c-2.074,1.482 -3.111,3.54 -3.111,6.173c0,1.91 0.675,3.49 2.025,4.741c1.35,1.251 3.144,2.354 5.383,3.309c2.238,0.955 4.773,1.86 7.605,2.716c2.831,0.856 5.728,1.811 8.691,2.864c2.963,1.054 5.861,2.288 8.692,3.704c2.831,1.416 5.366,3.161 7.605,5.235c2.239,2.074 4.033,4.592 5.383,7.555c1.35,2.963 2.025,6.519 2.025,10.667c0,5.07 -0.922,9.745 -2.766,14.025c-1.844,4.28 -4.593,7.968 -8.247,11.062c-3.654,3.095 -8.165,5.498 -13.531,7.21c-5.367,1.712 -11.539,2.568 -18.519,2.568c-3.49,0 -6.98,-0.329 -10.469,-0.987c-3.49,-0.659 -6.865,-1.548 -10.124,-2.667c-3.259,-1.119 -6.272,-2.453 -9.037,-4c-2.766,-1.548 -5.136,-3.21 -7.112,-4.988l7.112,-11.259c0.856,-1.317 1.876,-2.354 3.061,-3.112c1.186,-0.757 2.733,-1.135 4.643,-1.135c1.777,0 3.374,0.395 4.79,1.185c1.415,0.79 2.946,1.646 4.592,2.568c1.647,0.922 3.573,1.778 5.778,2.568c2.206,0.79 4.988,1.185 8.346,1.185c2.371,0 4.379,-0.247 6.025,-0.741c1.646,-0.494 2.963,-1.169 3.951,-2.025c0.987,-0.856 1.712,-1.81 2.173,-2.864c0.461,-1.053 0.691,-2.14 0.691,-3.259c0,-2.041 -0.691,-3.72 -2.074,-5.037c-1.383,-1.317 -3.194,-2.453 -5.432,-3.408c-2.239,-0.955 -4.791,-1.843 -7.655,-2.667c-2.864,-0.823 -5.778,-1.761 -8.741,-2.814c-2.963,-1.054 -5.876,-2.321 -8.741,-3.803c-2.864,-1.481 -5.415,-3.358 -7.654,-5.63c-2.239,-2.271 -4.05,-5.053 -5.432,-8.346c-1.383,-3.292 -2.075,-7.275 -2.075,-11.95c0,-4.346 0.84,-8.478 2.519,-12.396c1.679,-3.918 4.198,-7.358 7.556,-10.321c3.358,-2.963 7.572,-5.317 12.642,-7.062c5.07,-1.745 10.996,-2.617 17.778,-2.617c3.688,0 7.26,0.329 10.716,0.987c3.457,0.659 6.7,1.581 9.729,2.766c3.029,1.185 5.794,2.584 8.297,4.198c2.502,1.613 4.708,3.374 6.617,5.284l-6.914,10.765Z" style="fill-rule:nonzero;"/><path d="M1088.88,168.558c-4.873,0 -9.169,-0.707 -12.89,-2.123c-3.72,-1.416 -6.848,-3.424 -9.383,-6.025c-2.535,-2.601 -4.461,-5.745 -5.777,-9.432c-1.317,-3.688 -1.976,-7.803 -1.976,-12.346l0,-52.94l-8.691,0c-1.581,0 -2.93,-0.51 -4.05,-1.531c-1.119,-1.02 -1.679,-2.518 -1.679,-4.494l0,-11.95l16.297,-3.161l6.025,-24.988c0.79,-3.161 3.028,-4.741 6.716,-4.741l16,0l0,29.927l24.89,0l0,20.938l-24.89,0l0,50.866c0,2.37 0.576,4.329 1.729,5.876c1.152,1.548 2.814,2.321 4.987,2.321c1.12,0 2.058,-0.115 2.815,-0.345c0.757,-0.231 1.416,-0.494 1.976,-0.79c0.559,-0.297 1.086,-0.56 1.58,-0.791c0.494,-0.23 1.07,-0.345 1.728,-0.345c0.922,0 1.663,0.214 2.223,0.642c0.559,0.428 1.135,1.103 1.728,2.024l9.284,14.519c-3.951,2.963 -8.395,5.186 -13.333,6.667c-4.939,1.482 -10.042,2.222 -15.309,2.222Z" style="fill-rule:nonzero;"/><path d="M1202.66,166.978c-2.897,0 -5.087,-0.395 -6.568,-1.185c-1.482,-0.79 -2.716,-2.436 -3.704,-4.939l-2.173,-5.629c-2.568,2.173 -5.037,4.082 -7.407,5.728c-2.371,1.646 -4.824,3.046 -7.359,4.198c-2.535,1.152 -5.234,2.008 -8.099,2.568c-2.864,0.56 -6.041,0.839 -9.531,0.839c-4.675,0 -8.922,-0.611 -12.741,-1.833c-3.819,-1.222 -7.062,-3.022 -9.728,-5.401c-2.667,-2.378 -4.725,-5.334 -6.173,-8.868c-1.449,-3.534 -2.173,-7.613 -2.173,-12.236c0,-3.634 0.922,-7.367 2.765,-11.198c1.844,-3.831 5.037,-7.316 9.581,-10.454c4.543,-3.138 10.667,-5.764 18.371,-7.877c7.703,-2.114 17.416,-3.171 29.136,-3.171l0,-4.386c0,-6.047 -1.235,-10.417 -3.704,-13.108c-2.469,-2.692 -5.975,-4.037 -10.519,-4.037c-3.621,0 -6.584,0.395 -8.889,1.185c-2.304,0.79 -4.362,1.679 -6.173,2.667c-1.81,0.987 -3.572,1.876 -5.284,2.666c-1.712,0.79 -3.753,1.185 -6.123,1.185c-2.107,0 -3.902,-0.51 -5.383,-1.53c-1.482,-1.021 -2.65,-2.289 -3.506,-3.803l-5.531,-9.58c6.189,-5.466 13.053,-9.532 20.593,-12.198c7.539,-2.667 15.621,-4 24.247,-4c6.19,0 11.77,1.004 16.741,3.012c4.972,2.008 9.186,4.807 12.643,8.395c3.456,3.589 6.107,7.852 7.95,12.791c1.844,4.938 2.766,10.337 2.766,16.198l0,64.001l-14.025,0Zm-35.161,-18.667c3.95,0 7.407,-0.691 10.37,-2.074c2.963,-1.383 5.959,-3.622 8.988,-6.716l0,-14.025c-6.124,0 -11.161,0.398 -15.111,1.195c-3.951,0.797 -7.079,1.793 -9.383,2.989c-2.305,1.196 -3.902,2.558 -4.791,4.085c-0.888,1.527 -1.333,3.188 -1.333,4.981c0,3.521 0.955,5.995 2.864,7.423c1.91,1.428 4.708,2.142 8.396,2.142Z" style="fill-rule:nonzero;"/></svg>